<?xml version="1.0" standalone="no"?>
<!DOCTYPE svg PUBLIC "-//W3C//DTD SVG 20010904//EN"
 "http://www.w3.org/TR/2001/REC-SVG-20010904/DTD/svg10.dtd">
<svg version="1.0" xmlns="http://www.w3.org/2000/svg"
 width="259.000000pt" height="259.000000pt" viewBox="0 0 259.000000 259.000000"
 preserveAspectRatio="xMidYMid meet">
<metadata>
Created by potrace 1.11, written by Peter Selinger 2001-2013
</metadata>
<g transform="translate(0.000000,259.000000) scale(0.100000,-0.100000)"
fill="#000000" stroke="none">
<path d="M1690 2248 c-36 -10 -72 -20 -81 -22 -23 -6 -170 -76 -199 -96 -99
-66 -131 -89 -179 -129 -71 -60 -150 -139 -198 -198 -21 -27 -41 -50 -44 -53
-12 -11 -116 -178 -138 -221 -23 -46 -23 -46 -77 -48 -68 -1 -135 -34 -187
-90 -32 -35 -187 -324 -187 -350 0 -5 -6 -11 -12 -14 -7 -2 -10 -8 -6 -12 7
-7 24 -2 163 49 39 15 77 29 85 32 8 3 15 5 15 4 0 -1 17 6 37 14 21 9 39 16
41 16 2 0 2 -28 0 -62 -6 -86 0 -103 44 -121 l38 -16 -40 -1 c-22 -1 -59 -2
-82 -3 -24 0 -43 -5 -43 -10 0 -5 7 -33 16 -63 15 -54 12 -74 -19 -106 -7 -7
-28 -33 -47 -58 -19 -25 -37 -47 -40 -50 -3 -3 -18 -21 -33 -41 l-27 -36 62
-13 c35 -7 95 -20 133 -29 l70 -17 -2 -45 c-1 -24 -7 -89 -12 -144 -6 -55 -13
-127 -17 -160 l-5 -59 22 19 c12 11 78 74 146 140 68 66 128 121 132 123 4 1
41 -41 81 -95 45 -59 75 -92 78 -83 5 19 70 176 88 214 8 16 14 34 14 40 1 28
29 45 86 51 32 4 62 9 67 12 4 2 -11 29 -33 60 -22 31 -40 60 -40 65 0 5 17 0
37 -11 37 -18 37 -18 66 3 16 11 48 38 71 59 l41 37 27 -82 c15 -46 41 -130
59 -187 l31 -104 84 171 c95 196 103 221 100 300 -3 63 -22 113 -62 155 l-26
28 34 77 c38 84 70 172 89 242 16 56 14 46 24 105 4 28 10 57 11 65 22 107 22
302 0 455 -9 64 -42 171 -77 245 l-31 68 -42 0 c-22 -1 -70 -9 -106 -20z"/>
</g>
</svg>
